<svg width="150" height="150" viewBox="0 0 150 150" fill="none" xmlns="http://www.w3.org/2000/svg">
<circle cx="75" cy="75" r="75" fill="#D9D9D9"/>
<mask id="mask0_1573_18" style="mask-type:alpha" maskUnits="userSpaceOnUse" x="0" y="0" width="150" height="150">
<circle cx="75" cy="75" r="75" fill="#D9D9D9"/>
</mask>
<g mask="url(#mask0_1573_18)">
<path d="M75.572 83.0584C68.9816 83.0584 63.344 80.7394 58.6593 76.0216C53.9745 71.3037 51.6719 65.7062 51.6719 58.9892C51.6719 52.2722 53.9745 46.5148 58.6593 41.8769C63.344 37.239 68.9022 35 75.572 35C82.2418 35 87.9588 37.319 92.5642 41.8769C97.1695 46.4349 99.3928 52.1923 99.3928 58.9892C99.3928 65.7862 97.0901 71.3037 92.5642 76.0216C88.0382 80.7394 82.3212 83.0584 75.572 83.0584Z" fill="#7A7673"/>
<rect x="23" y="132" width="110" height="34" fill="#7A7673"/>
<path d="M39.275 133.04C67.4629 132.721 98.2711 134.64 126.38 133.76C125.903 117.048 101.447 100.895 74.6091 100.895C47.7711 100.895 25.459 114.729 25.459 131.601C25.459 132.161 25.6178 132.721 25.6972 133.2C30.2231 133.04 34.7491 132.96 39.275 133.04Z" fill="#7A7673"/>
</g>
</svg>
