<svg width="33" height="32" viewBox="0 0 33 32" fill="none" xmlns="http://www.w3.org/2000/svg">
<g clip-path="url(#clip0_1650_660)">
<path d="M3.63797 31.8531C2.63038 31.8531 1.79482 31.5224 1.08213 30.8374C0.369446 30.1524 0.0253906 29.3257 0.0253906 28.3808V3.90932C0.0253906 2.94085 0.369446 2.13773 1.08213 1.45272C1.79482 0.767708 2.65496 0.437012 3.63797 0.437012H29.0735C30.0811 0.437012 30.9167 0.767708 31.6293 1.45272C32.342 2.13773 32.6861 2.96447 32.6861 3.90932V28.3572C32.6861 29.3257 32.342 30.1288 31.6293 30.8138C30.9167 31.4988 30.0565 31.8295 29.0735 31.8295H3.63797V31.8531Z" fill="white" fill-opacity="0.8"/>
<path d="M13.6385 18.7436V22.2395C13.6385 22.9718 13.9088 23.5859 14.4249 24.1056C14.941 24.6253 15.6045 24.8615 16.3663 24.8615C17.1282 24.8615 17.7671 24.6016 18.3078 24.1056C18.8484 23.5859 19.0942 22.9718 19.0942 22.2395V18.7436H22.7314C23.4932 18.7436 24.1322 18.4838 24.6728 17.9877C25.2135 17.4917 25.4592 16.8539 25.4592 16.1217C25.4592 15.3894 25.1889 14.7753 24.6728 14.2556C24.1322 13.7359 23.4932 13.4997 22.7314 13.4997H19.0942V10.0038C19.0942 9.27153 18.8239 8.65738 18.3078 8.13771C17.7671 7.61805 17.1282 7.38184 16.3663 7.38184C15.6045 7.38184 14.9655 7.64167 14.4249 8.13771C13.8842 8.63376 13.6385 9.27153 13.6385 10.0038V13.4997H10.0013C9.23947 13.4997 8.60051 13.7595 8.05985 14.2556C7.51919 14.7753 7.27344 15.3894 7.27344 16.1217C7.27344 16.8539 7.54377 17.4681 8.05985 17.9877C8.57593 18.5074 9.23947 18.7436 10.0013 18.7436H13.6385Z" fill="#00A2BC"/>
</g>
<rect x="0.5" y="0.913574" width="31.7099" height="30.4397" rx="15.2199" stroke="white" stroke-opacity="0.8"/>
<defs>
<clipPath id="clip0_1650_660">
<rect y="0.413574" width="32.7099" height="31.4397" rx="15.7199" fill="white"/>
</clipPath>
</defs>
</svg>
