<svg width="25" height="24" viewBox="0 0 25 24" fill="none" xmlns="http://www.w3.org/2000/svg">
<g clip-path="url(#clip0_1656_196)">
<path d="M5.00317 19.8936L2.1216 22.7603C1.72578 23.154 1.26662 23.2486 0.759975 23.028C0.253325 22.8075 0 22.4295 0 21.8625V2.48867C0 1.81137 0.237492 1.21283 0.728309 0.724548C1.21913 0.236266 1.80494 0 2.50158 0H22.4984C23.1792 0 23.7809 0.236266 24.2717 0.724548C24.7625 1.21283 25 1.79562 25 2.48867V17.4049C25 18.0822 24.7625 18.6807 24.2717 19.169C23.7809 19.6573 23.1951 19.8936 22.4984 19.8936H5.00317Z" fill="#C8EDF2"/>
<path d="M7.5047 11.1991C7.85302 11.1991 8.15384 11.0731 8.39134 10.8368C8.62883 10.6006 8.75549 10.3013 8.75549 9.95478C8.75549 9.60826 8.62883 9.30899 8.39134 9.07272C8.15384 8.83646 7.85302 8.71045 7.5047 8.71045C7.15638 8.71045 6.85555 8.83646 6.61806 9.07272C6.38057 9.30899 6.25391 9.60826 6.25391 9.95478C6.25391 10.3013 6.38057 10.6006 6.61806 10.8368C6.85555 11.0731 7.15638 11.1991 7.5047 11.1991Z" fill="#00A2BC"/>
<path d="M12.5086 11.1991C12.8569 11.1991 13.1577 11.0731 13.3952 10.8368C13.6327 10.6006 13.7594 10.3013 13.7594 9.95478C13.7594 9.60826 13.6327 9.30899 13.3952 9.07272C13.1577 8.83646 12.8569 8.71045 12.5086 8.71045C12.1603 8.71045 11.8595 8.83646 11.622 9.07272C11.3845 9.30899 11.2578 9.60826 11.2578 9.95478C11.2578 10.3013 11.3845 10.6006 11.622 10.8368C11.8595 11.0731 12.1603 11.1991 12.5086 11.1991Z" fill="#00A2BC"/>
<path d="M17.4949 11.1991C17.8433 11.1991 18.1441 11.0731 18.3816 10.8368C18.6191 10.6006 18.7457 10.3013 18.7457 9.95478C18.7457 9.60826 18.6191 9.30899 18.3816 9.07272C18.1441 8.83646 17.8433 8.71045 17.4949 8.71045C17.1466 8.71045 16.8458 8.83646 16.6083 9.07272C16.3708 9.30899 16.2441 9.60826 16.2441 9.95478C16.2441 10.3013 16.3708 10.6006 16.6083 10.8368C16.8458 11.0731 17.1466 11.1991 17.4949 11.1991Z" fill="#00A2BC"/>
</g>
<defs>
<clipPath id="clip0_1656_196">
<rect width="25" height="23.1383" fill="white"/>
</clipPath>
</defs>
</svg>
