<svg width="22" height="22" viewBox="0 0 22 22" fill="none" xmlns="http://www.w3.org/2000/svg">
<path fill-rule="evenodd" clip-rule="evenodd" d="M9.081 15.516C10.3535 15.5158 11.5973 15.1383 12.6553 14.4312C13.7132 13.7241 14.5377 12.7192 15.0245 11.5435C15.5113 10.3678 15.6386 9.07419 15.3903 7.82618C15.1419 6.57817 14.529 5.43184 13.6292 4.53213C12.7293 3.63241 11.5829 3.01973 10.3348 2.77156C9.0868 2.52338 7.79319 2.65086 6.61758 3.13786C5.44198 3.62486 4.43719 4.44952 3.73026 5.50757C3.02332 6.56561 2.646 7.80952 2.646 9.082C2.646 9.92701 2.81245 10.7637 3.13585 11.5444C3.45926 12.3251 3.93327 13.0344 4.53083 13.6319C5.12839 14.2293 5.83778 14.7033 6.61851 15.0265C7.39923 15.3498 8.23599 15.5161 9.081 15.516ZM9.081 17.162C10.6793 17.162 12.2417 16.688 13.5707 15.8C14.8996 14.912 15.9354 13.6499 16.547 12.1732C17.1586 10.6966 17.3185 9.0717 17.0067 7.50411C16.6948 5.93652 15.925 4.49663 14.7948 3.36652C13.6645 2.23641 12.2245 1.46685 10.6569 1.15516C9.08929 0.843462 7.46443 1.00364 5.98784 1.61542C4.51125 2.22721 3.24924 3.26312 2.36141 4.59217C1.47358 5.92121 0.999802 7.48369 1 9.082C1.00027 11.225 1.85177 13.2802 3.36722 14.7955C4.88268 16.3108 6.93796 17.162 9.081 17.162Z" fill="#67B6C1" stroke="#67B6C1" stroke-width="0.3"/>
<path fill-rule="evenodd" clip-rule="evenodd" d="M13.6063 13.611C13.6828 13.5345 13.7735 13.4739 13.8734 13.4325C13.9732 13.3912 14.0802 13.3699 14.1883 13.3699C14.2964 13.3699 14.4035 13.3912 14.5033 13.4325C14.6032 13.4739 14.6939 13.5345 14.7703 13.611L20.7563 19.597C20.8946 19.7539 20.968 19.9575 20.9616 20.1665C20.9551 20.3756 20.8693 20.5743 20.7217 20.7224C20.574 20.8705 20.3754 20.9568 20.1664 20.9637C19.9574 20.9707 19.7536 20.8979 19.5963 20.76L13.6063 14.775C13.5299 14.6986 13.4693 14.6078 13.4279 14.508C13.3865 14.4081 13.3652 14.3011 13.3652 14.193C13.3652 14.0849 13.3865 13.9779 13.4279 13.878C13.4693 13.7781 13.5299 13.6874 13.6063 13.611Z" fill="#67B6C1" stroke="#67B6C1" stroke-width="0.3"/>
</svg>
