<svg width="36" height="36" viewBox="0 0 36 36" fill="none" xmlns="http://www.w3.org/2000/svg">
<path d="M18.2228 35.9996C15.851 36.0148 13.5022 35.5406 11.3263 34.6072C7.05266 32.8081 3.64801 29.4452 1.82431 25.2219C0.879405 23.073 0.399175 20.7526 0.414414 18.4096C0.412047 16.0848 0.886137 13.7837 1.80807 11.6451C2.73001 9.5065 4.08068 7.57472 5.77857 5.96635C7.44471 4.36817 9.40041 3.09449 11.5434 2.21192C13.7659 1.28946 16.1526 0.816018 18.563 0.819489C20.8589 0.788612 23.1389 1.1999 25.2758 2.03039C27.3133 2.8023 29.1937 3.93032 30.8272 5.36054C32.4147 6.77888 33.6974 8.49833 34.5992 10.4166C35.5309 12.3877 36.0092 14.5383 35.9999 16.7139C35.9999 20.0743 34.9579 22.6783 32.8733 24.4641C30.7768 26.2621 28.0776 27.2229 25.3029 27.1589H22.0233C21.7472 27.1589 21.5636 27.2194 21.4717 27.37C21.3756 27.5138 21.3226 27.6816 21.3187 27.854C21.3969 28.4106 21.6303 28.9347 21.9927 29.3675C22.4485 30.0377 22.6839 30.8306 22.6667 31.638C22.7179 32.2336 22.6344 32.8331 22.4223 33.3928C22.2102 33.9526 21.8748 34.4588 21.4404 34.8746C20.5338 35.6032 19.3895 35.9799 18.2221 35.9342L18.2228 35.9996Z" fill="#E9B77F"/>
<path d="M11.7637 13.0337C12.1867 13.0499 12.6086 12.9795 13.0028 12.8268C13.3969 12.6742 13.7549 12.4427 14.0543 12.1467C14.3536 11.8508 14.5879 11.4969 14.7422 11.1072C14.8966 10.7175 14.9679 10.3004 14.9515 9.88224C14.967 9.46456 14.8951 9.04821 14.7403 8.65928C14.5855 8.27034 14.3511 7.91719 14.0519 7.62194C13.7526 7.3267 13.3949 7.09572 13.0012 6.94346C12.6075 6.79121 12.1862 6.72097 11.7637 6.73714C11.3418 6.72186 10.9212 6.79277 10.5282 6.94542C10.1353 7.09807 9.77835 7.32919 9.4798 7.62434C9.18125 7.91949 8.94747 8.27233 8.79306 8.66083C8.63865 9.04932 8.56693 9.46511 8.58238 9.88224C8.56602 10.2999 8.63708 10.7164 8.79108 11.1056C8.94509 11.4949 9.17873 11.8485 9.47738 12.1443C9.77603 12.4402 10.1332 12.6719 10.5267 12.8249C10.9201 12.9779 11.3412 13.049 11.7637 13.0337Z" fill="#DB0A0A"/>
<path d="M6.54768 21.5584C6.97022 21.5742 7.3915 21.5035 7.78514 21.3509C8.17878 21.1982 8.5363 20.9669 8.83529 20.6713C9.13428 20.3757 9.36831 20.0223 9.52271 19.6331C9.67711 19.2439 9.74856 18.8275 9.73258 18.4097C9.74846 17.9921 9.67694 17.5757 9.52249 17.1866C9.36804 16.7975 9.134 16.4442 8.83502 16.1486C8.53604 15.8531 8.17856 15.6218 7.78497 15.4692C7.39138 15.3166 6.97016 15.246 6.54768 15.2618C6.12526 15.2461 5.70412 15.3168 5.31061 15.4695C4.91711 15.6221 4.55971 15.8534 4.26081 16.1489C3.96191 16.4444 3.72793 16.7977 3.57353 17.1868C3.41912 17.5758 3.34762 17.9921 3.36349 18.4097C3.34762 18.8273 3.41912 19.2437 3.57353 19.6327C3.72793 20.0217 3.96191 20.3751 4.26081 20.6706C4.55971 20.9661 4.91711 21.1974 5.31061 21.35C5.70412 21.5027 6.12526 21.5733 6.54768 21.5577V21.5584Z" fill="#009BFF"/>
<path d="M27.4055 16.149C27.1068 16.4447 26.873 16.798 26.7185 17.1869C26.5641 17.5759 26.4925 17.9921 26.508 18.4097C26.4921 18.8271 26.5634 19.2433 26.7176 19.6322C26.8718 20.0211 27.1055 20.3744 27.4041 20.6699C27.7027 20.9655 28.0598 21.1969 28.453 21.3498C28.8462 21.5026 29.2671 21.5736 29.6894 21.5583C30.1118 21.574 30.5329 21.5033 30.9265 21.3507C31.32 21.198 31.6774 20.9667 31.9763 20.6712C32.2752 20.3757 32.5091 20.0224 32.6635 19.6334C32.8179 19.2444 32.8894 18.828 32.8736 18.4104C32.8895 17.9927 32.8181 17.5763 32.6638 17.1872C32.5094 16.7981 32.2754 16.4447 31.9765 16.1491C31.6776 15.8535 31.3202 15.6222 30.9266 15.4695C30.5331 15.3168 30.1119 15.2461 29.6894 15.2618C29.2675 15.2468 28.847 15.3178 28.4541 15.4705C28.0611 15.6231 27.7042 15.8541 27.4055 16.149Z" fill="#FFF700"/>
<path d="M21.7375 6.60044C21.4388 6.89607 21.205 7.24938 21.0505 7.63835C20.8961 8.02731 20.8245 8.44356 20.8401 8.86112C20.8242 9.27873 20.8957 9.69508 21.0501 10.0841C21.2045 10.4731 21.4385 10.8264 21.7374 11.1219C22.0363 11.4174 22.3937 11.6488 22.7872 11.8014C23.1807 11.954 23.6018 12.0247 24.0242 12.009C24.4467 12.0247 24.8678 11.954 25.2613 11.8014C25.6548 11.6488 26.0122 11.4174 26.3111 11.1219C26.61 10.8264 26.844 10.4731 26.9984 10.0841C27.1528 9.69508 27.2243 9.27873 27.2084 8.86112C27.2243 8.44352 27.1528 8.02717 26.9984 7.63814C26.844 7.24912 26.61 6.8958 26.3111 6.6003C26.0122 6.3048 25.6548 6.07348 25.2613 5.92084C24.8678 5.7682 24.4467 5.69751 24.0242 5.7132C23.6019 5.6978 23.1808 5.76864 22.7874 5.9213C22.3939 6.07395 22.0365 6.30514 21.7375 6.60044Z" fill="#BB37BA"/>
</svg>
