<svg width="21" height="21" viewBox="0 0 21 21" fill="none" xmlns="http://www.w3.org/2000/svg">
<path d="M20.0324 0C18.0104 0.139 3.79937 1.492 2.80637 11.235C2.68537 12.276 2.61737 13.323 2.57237 14.369L9.55937 7.389C9.6766 7.27164 9.83564 7.20566 10.0015 7.20556C10.1674 7.20547 10.3265 7.27127 10.4439 7.3885C10.5612 7.50573 10.6272 7.66477 10.6273 7.83065C10.6274 7.99652 10.5616 8.15564 10.4444 8.273L0.307371 18.4C0.213375 18.4854 0.137691 18.5889 0.0849026 18.7044C0.0321146 18.8199 0.00332248 18.9449 0.000270937 19.0718C-0.0027806 19.1988 0.019972 19.325 0.0671499 19.4429C0.114328 19.5608 0.184949 19.6679 0.274734 19.7576C0.364519 19.8474 0.471598 19.918 0.589483 19.9652C0.707368 20.0124 0.833604 20.0352 0.960543 20.0321C1.08748 20.029 1.21248 20.0003 1.32796 19.9475C1.44344 19.8947 1.547 19.819 1.63237 19.725L3.86637 17.5C5.51045 17.4957 7.15301 17.3995 8.78637 17.212C10.6995 17.0264 12.5085 16.2538 13.9654 15H10.0224L15.7564 13.091C16.1956 12.5062 16.593 11.891 16.9454 11.25H13.7754L17.9374 9.171C19.0853 6.23441 19.7914 3.14377 20.0324 0Z" fill="#67B6C1"/>
</svg>
