<svg width="62" height="62" viewBox="0 0 62 62" fill="none" xmlns="http://www.w3.org/2000/svg">
<path d="M19.6585 5C19.6585 2.23858 21.8971 0 24.6585 0H37.3415C40.1029 0 42.3415 2.23858 42.3415 5V57C42.3415 59.7614 40.1029 62 37.3415 62H24.6585C21.8971 62 19.6585 59.7614 19.6585 57V5Z" fill="#00B2FC"/>
<path d="M5 42.3415C2.23858 42.3415 8.93649e-07 40.1029 7.72943e-07 37.3415L2.18556e-07 24.6585C9.78511e-08 21.8971 2.23858 19.6585 5 19.6585L57 19.6585C59.7614 19.6585 62 21.8971 62 24.6585V37.3415C62 40.1029 59.7614 42.3415 57 42.3415L5 42.3415Z" fill="#00B2FC"/>
</svg>
