<svg width="20" height="21" viewBox="0 0 20 21" fill="none" xmlns="http://www.w3.org/2000/svg">
<path d="M19.9992 0.150024C17.9772 0.289024 3.76617 1.64202 2.77317 11.385C2.65217 12.426 2.58417 13.473 2.53917 14.519L9.52617 7.53902C9.64339 7.42167 9.80244 7.35568 9.96831 7.35559C10.1342 7.35549 10.2933 7.4213 10.4107 7.53852C10.528 7.65575 10.594 7.8148 10.5941 7.98067C10.5942 8.14655 10.5284 8.30567 10.4112 8.42302L0.274168 18.55C0.180172 18.6354 0.104487 18.739 0.0516995 18.8544C-0.00108853 18.9699 -0.0298806 19.0949 -0.0329322 19.2219C-0.0359837 19.3488 -0.0132312 19.475 0.0339468 19.5929C0.0811248 19.7108 0.151746 19.8179 0.241531 19.9077C0.331316 19.9974 0.438395 20.0681 0.55628 20.1152C0.674165 20.1624 0.800401 20.1852 0.927339 20.1821C1.05428 20.1791 1.17928 20.1503 1.29476 20.0975C1.41024 20.0447 1.5138 19.969 1.59917 19.875L3.83317 17.65C5.47725 17.6457 7.11981 17.5495 8.75317 17.362C10.6663 17.1764 12.4753 16.4038 13.9322 15.15H9.98917L15.7232 13.241C16.1624 12.6562 16.5598 12.041 16.9122 11.4H13.7422L17.9042 9.32102C19.0521 6.38443 19.7582 3.2938 19.9992 0.150024Z" fill="#999999"/>
</svg>
