<svg width="48" height="50" viewBox="0 0 48 50" fill="none" xmlns="http://www.w3.org/2000/svg">
<g clip-path="url(#clip0_1618_10)">
<path d="M16.25 50C15.7531 50.0161 15.2583 49.9301 14.796 49.7474C14.3338 49.5646 13.9139 49.289 13.5624 48.9375C13.2109 48.586 12.9353 48.1662 12.7525 47.7039C12.5698 47.2416 12.4838 46.7468 12.5 46.25C12.4838 45.7531 12.5698 45.2583 12.7525 44.796C12.9353 44.3338 13.2109 43.9139 13.5624 43.5624C13.9139 43.2109 14.3338 42.9353 14.796 42.7525C15.2583 42.5698 15.7531 42.4838 16.25 42.5C16.7468 42.4838 17.2416 42.5698 17.7039 42.7525C18.1662 42.9353 18.586 43.2109 18.9375 43.5624C19.289 43.9139 19.5646 44.3338 19.7474 44.796C19.9301 45.2583 20.0161 45.7531 20 46.25C20.0161 46.7468 19.9301 47.2416 19.7474 47.7039C19.5646 48.1662 19.289 48.586 18.9375 48.9375C18.586 49.289 18.1662 49.5646 17.7039 49.7474C17.2416 49.9301 16.7468 50.0161 16.25 50Z" fill="#868686"/>
<path d="M43.75 50C43.2531 50.0161 42.7583 49.9301 42.296 49.7474C41.8338 49.5646 41.4139 49.289 41.0624 48.9375C40.7109 48.586 40.4353 48.1662 40.2525 47.7039C40.0698 47.2416 39.9838 46.7468 40 46.25C39.9838 45.7531 40.0698 45.2583 40.2525 44.796C40.4353 44.3338 40.7109 43.9139 41.0624 43.5624C41.4139 43.2109 41.8338 42.9353 42.296 42.7525C42.7583 42.5698 43.2531 42.4838 43.75 42.5C44.2468 42.4838 44.7416 42.5698 45.2039 42.7525C45.6662 42.9353 46.086 43.2109 46.4375 43.5624C46.789 43.9139 47.0646 44.3338 47.2474 44.796C47.4301 45.2583 47.5161 45.7531 47.5 46.25C47.5161 46.7468 47.4301 47.2416 47.2474 47.7039C47.0646 48.1662 46.789 48.586 46.4375 48.9375C46.086 49.289 45.6662 49.5646 45.2039 49.7474C44.7416 49.9301 44.2468 50.0161 43.75 50Z" fill="#868686"/>
<path d="M28.75 14L19 2.24997C20.5471 1.48377 22.1852 0.916915 23.875 0.562969C25.7249 0.177647 27.6104 -0.0110681 29.5 -3.08188e-05C31.1623 -0.00520416 32.8195 0.183742 34.438 0.562969C35.9683 0.917287 37.441 1.48519 38.813 2.24997C39.0343 2.40518 39.2208 2.60473 39.3608 2.83594C39.5007 3.06715 39.5911 3.32496 39.626 3.59297C39.6713 3.85661 39.6426 4.12764 39.5433 4.376C39.4439 4.62436 39.2776 4.84033 39.063 4.99997L28.75 14Z" fill="#F8B0B9"/>
<path d="M2.50074 11.25C2.17057 11.2582 1.84222 11.1985 1.53604 11.0747C1.22986 10.9509 0.95237 10.7655 0.720743 10.53C0.485301 10.2984 0.299917 10.0209 0.176069 9.71472C0.0522217 9.40855 -0.00745218 9.0802 0.000742988 8.75002C-0.0139513 7.61262 0.19675 6.48356 0.620688 5.428C1.04463 4.37245 1.67341 3.4113 2.47074 2.60002C3.23469 1.7647 4.16721 1.10101 5.20668 0.652813C6.24615 0.204616 7.3689 -0.0178811 8.50074 2.44142e-05C9.70327 -0.0117317 10.8881 0.289828 11.9387 0.875024C13.1512 1.60217 14.2296 2.53239 15.1267 3.62502L41.8767 35.875C42.2136 36.2263 42.4337 36.6732 42.5067 37.1544C42.5797 37.6356 42.5022 38.1276 42.2847 38.563C42.1017 39.011 41.783 39.3904 41.3734 39.6481C40.9638 39.9058 40.4838 40.0289 40.0007 40H25.0007C23.355 40.0266 21.7213 39.716 20.2002 39.0875C18.679 38.4589 17.3026 37.5256 16.1557 36.345C14.9752 35.1981 14.0419 33.8218 13.4133 32.3006C12.7847 30.7794 12.4742 29.1457 12.5007 27.5V8.25002L11.2507 6.75002C10.8415 6.20434 10.346 5.7291 9.78374 5.34302C9.39404 5.11698 8.95125 4.9986 8.50074 5.00002C8.0268 4.99119 7.55679 5.0875 7.12452 5.28202C6.69224 5.47655 6.30845 5.76445 6.00074 6.12502C5.34646 6.84148 4.98899 7.77985 5.00074 8.75002C5.00894 9.0802 4.94926 9.40855 4.82542 9.71472C4.70157 10.0209 4.51618 10.2984 4.28074 10.53C4.04912 10.7655 3.77162 10.9509 3.46544 11.0747C3.15926 11.1985 2.83092 11.2582 2.50074 11.25Z" fill="#A4C4DD"/>
</g>
<defs>
<clipPath id="clip0_1618_10">
<rect width="47.5" height="50" fill="white"/>
</clipPath>
</defs>
</svg>
