<svg width="55" height="16" viewBox="0 0 55 16" fill="none" xmlns="http://www.w3.org/2000/svg">
<g clip-path="url(#clip0_1618_20)">
<path d="M7.5 15.566C11.6421 15.566 15 12.0814 15 7.783C15 3.48457 11.6421 0 7.5 0C3.35786 0 0 3.48457 0 7.783C0 12.0814 3.35786 15.566 7.5 15.566Z" fill="#6B6B6B"/>
<path d="M27.5 15.566C31.6421 15.566 35 12.0814 35 7.783C35 3.48457 31.6421 0 27.5 0C23.3579 0 20 3.48457 20 7.783C20 12.0814 23.3579 15.566 27.5 15.566Z" fill="#6B6B6B"/>
<path d="M47.5 15.566C51.6421 15.566 55 12.0814 55 7.783C55 3.48457 51.6421 0 47.5 0C43.3579 0 40 3.48457 40 7.783C40 12.0814 43.3579 15.566 47.5 15.566Z" fill="#6B6B6B"/>
</g>
<defs>
<clipPath id="clip0_1618_20">
<rect width="55" height="15.566" fill="white"/>
</clipPath>
</defs>
</svg>
