<svg width="25" height="20" viewBox="0 0 25 20" fill="none" xmlns="http://www.w3.org/2000/svg">
<mask id="mask0_1314_10450" style="mask-type:luminance" maskUnits="userSpaceOnUse" x="0" y="0" width="25" height="20">
<path d="M24.8161 0H0V19.181H24.8161V0Z" fill="white"/>
</mask>
<g mask="url(#mask0_1314_10450)">
<path d="M10.4786 10.4895V13.1868H8.0886C7.93116 13.1841 7.7748 13.2133 7.62882 13.2726C7.48284 13.3319 7.35021 13.4201 7.23884 13.532C7.12746 13.6438 7.0396 13.777 6.98049 13.9236C6.92138 14.0703 6.89223 14.2274 6.89476 14.3856V16.7832C6.89035 17.0988 6.95041 17.412 7.07124 17.7034C7.19207 17.9948 7.37109 18.2582 7.59724 18.4773C7.81576 18.704 8.07813 18.8833 8.36821 19.0043C8.65828 19.1253 8.96993 19.1854 9.28397 19.1808H21.2304C21.7013 19.1831 22.168 19.0917 22.6035 18.9118C23.0391 18.7319 23.4348 18.4672 23.768 18.1328C24.1012 17.7985 24.3652 17.4011 24.5448 16.9637C24.7243 16.5263 24.8159 16.0575 24.8142 15.5844V2.39744C24.8187 2.08213 24.7587 1.76927 24.6381 1.47816C24.5175 1.18705 24.3387 0.923884 24.1129 0.704902C23.8943 0.477857 23.6318 0.298171 23.3416 0.176909C23.0513 0.0556467 22.7394 -0.00462433 22.425 -0.000192873H12.1214C11.905 -0.00438105 11.6899 0.0360035 11.4896 0.118473C11.2893 0.200943 11.1079 0.323751 10.9566 0.479333C10.8014 0.631103 10.679 0.81326 10.5968 1.01452C10.5145 1.21578 10.4743 1.43186 10.4786 1.64938" fill="#CCAE7F"/>
<path d="M18.9219 13.2145H7.98873C7.69891 13.2151 7.42112 13.331 7.21609 13.5368C7.01105 13.7426 6.89544 14.0216 6.89453 14.3128V16.7596C6.89473 17.0778 6.95731 17.3929 7.0787 17.6868C7.20008 17.9808 7.3779 18.2478 7.60199 18.4727C7.82609 18.6976 8.09207 18.8759 8.38475 18.9975C8.67743 19.1191 8.99108 19.1816 9.3078 19.1814H21.8708C20.1769 18.6911 20.2089 18.1191 20.0814 16.3472C20.0337 15.6927 20.0299 15.0141 20.0192 14.314C20.0161 14.0228 19.8995 13.7445 19.6945 13.5388C19.4895 13.333 19.2124 13.2162 18.9227 13.2134" fill="#A58E69"/>
<path d="M22.6807 3.53282H12.5596C12.4656 3.53282 12.3725 3.51421 12.2857 3.47806C12.1988 3.44192 12.1199 3.38893 12.0534 3.32214C11.9869 3.25535 11.9342 3.17605 11.8982 3.08879C11.8623 3.00152 11.8438 2.90799 11.8438 2.81353C11.8438 2.71907 11.8623 2.62554 11.8982 2.53827C11.9342 2.451 11.9869 2.37171 12.0534 2.30491C12.1199 2.23812 12.1988 2.18514 12.2857 2.14899C12.3725 2.11284 12.4656 2.09424 12.5596 2.09424H22.6807C22.7747 2.09424 22.8678 2.11284 22.9547 2.14899C23.0415 2.18514 23.1204 2.23812 23.1869 2.30491C23.2534 2.37171 23.3061 2.451 23.3421 2.53827C23.3781 2.62554 23.3966 2.71907 23.3966 2.81353C23.3966 2.90799 23.3781 3.00152 23.3421 3.08879C23.3061 3.17605 23.2534 3.25535 23.1869 3.32214C23.1204 3.38893 23.0415 3.44192 22.9547 3.47806C22.8678 3.51421 22.7747 3.53282 22.6807 3.53282Z" fill="#ECECEC"/>
<path d="M22.6807 5.75401H12.5596C12.3697 5.75401 12.1877 5.67823 12.0534 5.54333C11.9192 5.40844 11.8438 5.22549 11.8438 5.03472C11.8438 4.84395 11.9192 4.661 12.0534 4.5261C12.1877 4.39121 12.3697 4.31543 12.5596 4.31543H22.6807C22.8706 4.31543 23.0527 4.39121 23.1869 4.5261C23.3212 4.661 23.3966 4.84395 23.3966 5.03472C23.3966 5.22549 23.3212 5.40844 23.1869 5.54333C23.0527 5.67823 22.8706 5.75401 22.6807 5.75401Z" fill="#ECECEC"/>
<path d="M18.0385 10.5935C17.9961 10.3593 17.8812 10.1445 17.7102 9.97971L10.8705 3.11827C9.54418 2.0004 9.80608 2.11549 8.48128 1.64824L7.96626 1.49824C7.13201 1.23823 6.26553 1.09734 5.39226 1.07971H5.37546C4.46546 1.09336 3.56138 1.22934 2.6873 1.48405C1.81379 1.69714 1.01093 2.13608 0.358412 2.75728C0.24517 2.86544 0.155002 2.9956 0.0933874 3.13986C0.031773 3.28413 0 3.43947 0 3.59646C0 3.75344 0.031773 3.90879 0.0933874 4.05305C0.155002 4.19731 0.24517 4.32747 0.358412 4.43563L3.04618 7.13286C3.16104 7.24988 3.2985 7.34204 3.45011 7.4037C3.59714 7.46276 3.75411 7.49285 3.91245 7.49231H4.77873V8.30291C4.77894 8.4633 4.8144 8.62167 4.88257 8.7667C4.95329 8.91729 5.04953 9.05436 5.167 9.17181C5.6077 9.59205 6.13211 9.91357 6.7056 10.1151C7.27766 10.3218 7.87552 10.4477 8.48205 10.4892C9.29886 10.5198 10.1129 10.3772 10.8713 10.0706C11.2169 9.94664 11.5437 9.7752 11.8425 9.56118C12.1561 9.33638 12.4506 9.08578 12.7229 8.81197L12.9619 8.57221L16.0074 11.6293C16.1154 11.7362 16.2416 11.8227 16.38 11.8848C16.5251 11.9533 16.6833 11.9889 16.8435 11.9891C17.0873 11.9994 17.328 11.9314 17.5307 11.795C17.7149 11.6607 17.8599 11.4794 17.9507 11.2698C18.0487 11.0598 18.08 10.8247 18.0404 10.5962" fill="#00A2BC"/>
</g>
</svg>
