<svg width="28" height="20" viewBox="0 0 28 20" fill="none" xmlns="http://www.w3.org/2000/svg">
<path d="M27.1477 2.60282V17.5437C27.1558 17.7621 27.1036 17.9784 26.9969 18.1688C26.8901 18.3592 26.733 18.5162 26.543 18.6224C26.3591 18.7439 26.1453 18.8118 25.9253 18.8186C25.7053 18.8253 25.4878 18.7707 25.2968 18.6608C24.5412 18.2414 23.7373 17.9166 22.903 17.6937C22.074 17.4704 21.2194 17.3578 20.3611 17.3588C19.4451 17.3551 18.5325 17.4712 17.6462 17.704C16.7563 17.9411 15.9045 18.3044 15.1165 18.7828C14.8854 18.9053 14.6411 19.0009 14.3884 19.0678C14.2546 19.1052 14.1185 19.1341 13.9811 19.1545C13.8452 19.1668 13.7096 19.1795 13.5737 19.1795C13.4378 19.1795 13.3023 19.1672 13.1663 19.1545C13.0304 19.1296 12.8949 19.105 12.759 19.0678C12.5063 19.0009 12.262 18.9053 12.0309 18.7828C11.2429 18.3044 10.3911 17.9411 9.50121 17.704C8.61497 17.4712 7.70235 17.3551 6.78633 17.3588C5.92806 17.3578 5.07341 17.4704 4.2444 17.6937C3.41014 17.9166 2.60622 18.2414 1.8506 18.6608C1.65965 18.7707 1.44211 18.8253 1.22213 18.8186C1.00216 18.8118 0.788352 18.7439 0.604454 18.6224C0.414571 18.5161 0.257676 18.359 0.151143 18.1687C0.0446089 17.9783 -0.00740827 17.762 0.00085056 17.5437V2.60282C0.00250829 2.37268 0.0618581 2.14667 0.173418 1.94567C0.284189 1.73822 0.462893 1.5756 0.679284 1.48533C1.61786 0.994422 2.61249 0.620318 3.64118 0.371296C5.83127 -0.151973 8.1163 -0.121659 10.2919 0.459529C11.2943 0.733482 12.2598 1.12896 13.1671 1.63724C13.303 1.69939 13.4386 1.78609 13.5745 1.86051C13.7104 1.78609 13.8459 1.69939 13.9818 1.63724C14.889 1.12899 15.8544 0.733511 16.8567 0.459529C19.0324 -0.121723 21.3176 -0.152038 23.5078 0.371296C24.5364 0.620958 25.5309 0.995707 26.4693 1.48725C26.6857 1.57752 26.8644 1.74014 26.9752 1.94759C27.0923 2.14629 27.152 2.37384 27.1477 2.60474" fill="#ECECEC"/>
<path d="M5.80118 10.6253H9.00818L9.59422 12.268C9.6319 12.3872 9.7079 12.4906 9.81031 12.5618C9.91913 12.6367 10.0488 12.6748 10.1806 12.6708C10.2866 12.6734 10.3915 12.6493 10.4857 12.6006C10.5799 12.5518 10.6604 12.4801 10.7197 12.3919C10.7843 12.3098 10.8254 12.2117 10.8389 12.108C10.8523 12.0043 10.8375 11.8989 10.7961 11.803L8.26904 5.10729C8.22673 4.98164 8.14535 4.87298 8.03691 4.79732C7.92559 4.7148 7.79039 4.67127 7.65207 4.67342H7.15843C7.01965 4.67142 6.88402 4.71492 6.77206 4.79732C6.665 4.8737 6.5848 4.98223 6.54299 5.10729L4.01213 11.803C3.97091 11.899 3.95625 12.0043 3.96969 12.108C3.98313 12.2116 4.02417 12.3097 4.08849 12.3919C4.14821 12.4801 4.22898 12.5518 4.32343 12.6005C4.41787 12.6492 4.52296 12.6734 4.6291 12.6708C4.76525 12.6733 4.89913 12.6354 5.01393 12.5618C5.12981 12.4873 5.21288 12.371 5.24606 12.2369L5.80118 10.6253Z" fill="#5BB683"/>
<path d="M6.20312 9.47841L7.37673 6.16162H7.43858L8.61067 9.47841H6.20312Z" fill="#ECECEC"/>
<path d="M16.0426 5.91355C16.0496 5.70641 16.1198 5.50644 16.2438 5.3408C16.3492 5.16771 16.5058 5.03199 16.6917 4.95258C17.2742 4.74922 17.8723 4.59385 18.4799 4.48801C19.1017 4.38331 19.7313 4.33197 20.3618 4.33457C20.7693 4.33387 21.1765 4.3595 21.5808 4.41129C21.9807 4.46244 22.3763 4.52945 22.7678 4.61231C22.9581 4.65711 23.1273 4.7666 23.2465 4.92227C23.3768 5.07858 23.4476 5.27621 23.4466 5.48006C23.4575 5.62709 23.4321 5.77456 23.3726 5.90935C23.3131 6.04414 23.2214 6.16207 23.1057 6.25267C22.98 6.33662 22.8372 6.39131 22.6878 6.41275C22.5384 6.43419 22.3861 6.42183 22.2421 6.37658C21.9417 6.31308 21.6381 6.26633 21.3326 6.23656C21.0131 6.20664 20.6897 6.19052 20.3602 6.19052C19.832 6.18962 19.305 6.24102 18.7869 6.34397C18.2851 6.44546 17.791 6.58158 17.3079 6.75138C17.1662 6.82466 17.0083 6.86027 16.8491 6.85483C16.6899 6.84939 16.5348 6.80308 16.3984 6.7203C16.276 6.62715 16.179 6.50424 16.1168 6.36312C16.0545 6.222 16.029 6.0673 16.0426 5.91355Z" fill="#868686"/>
<path d="M16.043 12.7329C16.05 12.5257 16.1203 12.3258 16.2442 12.1601C16.3494 11.9872 16.5055 11.8515 16.6909 11.7719C17.2739 11.5685 17.8723 11.4131 18.4804 11.3074C19.1022 11.2026 19.7317 11.1513 20.3622 11.1539C20.7697 11.1532 21.1769 11.1788 21.5812 11.2306C21.9811 11.2818 22.3767 11.3488 22.7682 11.4316C22.9586 11.4764 23.1277 11.5859 23.247 11.7416C23.3772 11.8979 23.4481 12.0955 23.447 12.2994C23.4579 12.4464 23.4325 12.5939 23.373 12.7287C23.3135 12.8635 23.2218 12.9814 23.1061 13.072C22.9804 13.156 22.8376 13.2106 22.6882 13.2321C22.5388 13.2535 22.3865 13.2412 22.2425 13.1959C21.9421 13.1324 21.6385 13.0857 21.3331 13.0559C21.0135 13.026 20.6901 13.0099 20.3607 13.0099C19.8331 13.009 19.3066 13.0555 18.7873 13.1487C18.2846 13.2397 17.7896 13.3695 17.3068 13.537C17.1656 13.6097 17.0087 13.6463 16.85 13.6435C16.6914 13.6407 16.5359 13.5986 16.3973 13.5208C16.275 13.432 16.178 13.3125 16.1158 13.1742C16.0537 13.036 16.0286 12.8839 16.043 12.7329Z" fill="#868686"/>
<path d="M16.0453 9.32311C16.0523 9.11597 16.1225 8.91601 16.2465 8.75037C16.3519 8.57727 16.5085 8.44156 16.6943 8.36214C17.2771 8.15861 17.8755 8.00311 18.4834 7.89719C19.1052 7.79249 19.7347 7.74115 20.3652 7.74375C20.7728 7.74305 21.18 7.76868 21.5843 7.82047C21.9841 7.87162 22.3798 7.93863 22.7712 8.02149C22.9616 8.06629 23.1307 8.17578 23.25 8.33145C23.3802 8.48776 23.4511 8.68539 23.45 8.88924C23.4615 9.03652 23.4365 9.18436 23.3773 9.31957C23.3181 9.45478 23.2265 9.57317 23.1106 9.66415C22.9849 9.7481 22.8422 9.80279 22.6928 9.82423C22.5434 9.84567 22.3911 9.83331 22.247 9.78806C21.9467 9.72456 21.6431 9.67781 21.3376 9.64804C21.0181 9.61812 20.6947 9.602 20.3652 9.602C19.837 9.6011 19.31 9.6525 18.7919 9.75545C18.2897 9.85537 17.795 9.98995 17.3113 10.1583C17.1697 10.2315 17.0118 10.2672 16.8526 10.2617C16.6934 10.2563 16.5382 10.21 16.4019 10.1272C16.2796 10.0341 16.1829 9.91135 16.1207 9.77045C16.0586 9.62956 16.033 9.47511 16.0465 9.32158" fill="#868686"/>
</svg>
