<svg width="70" height="51" viewBox="0 0 70 51" fill="none" xmlns="http://www.w3.org/2000/svg">
<g clip-path="url(#clip0_1618_7)">
<path d="M25.1857 50.371C24.2232 50.3817 23.2835 50.0776 22.5097 49.505C21.7388 48.9475 21.1392 48.1854 20.7787 47.305L13.5377 28.334H3.14871C2.73281 28.3444 2.31922 28.2692 1.93356 28.1132C1.5479 27.9572 1.19839 27.7236 0.906706 27.427C0.325125 26.8258 0 26.022 0 25.1855C0 24.349 0.325125 23.5453 0.906706 22.944C1.19839 22.6474 1.5479 22.4138 1.93356 22.2578C2.31922 22.1018 2.73281 22.0266 3.14871 22.037H15.7417C16.3759 22.0213 16.9976 22.215 17.5107 22.588C18.0237 22.9721 18.4195 23.4915 18.6537 24.088L25.1857 41.246L39.6677 3.06901C40.0283 2.18723 40.6286 1.42407 41.4007 0.866008C42.1794 0.303118 43.1158 0.00012207 44.0767 0.00012207C45.0376 0.00012207 45.974 0.303118 46.7527 0.866008C47.5236 1.42353 48.1232 2.18557 48.4837 3.06601L55.7247 22.034H66.1127C66.9481 22.034 67.7494 22.3659 68.3401 22.9566C68.9308 23.5474 69.2627 24.3486 69.2627 25.184C69.2627 26.0194 68.9308 26.8207 68.3401 27.4114C67.7494 28.0021 66.9481 28.334 66.1127 28.334H53.5197C52.8855 28.3497 52.2638 28.156 51.7507 27.783C51.2378 27.3989 50.842 26.8795 50.6077 26.283L44.0747 9.13001L29.5937 47.3C29.2332 48.1804 28.6336 48.9425 27.8627 49.5C27.0889 50.0726 26.1493 50.3767 25.1867 50.366" fill="#DB0A0A"/>
</g>
<defs>
<clipPath id="clip0_1618_7">
<rect width="69.26" height="50.371" fill="white"/>
</clipPath>
</defs>
</svg>
