<svg width="69" height="50" viewBox="0 0 69 50" fill="none" xmlns="http://www.w3.org/2000/svg">
<g clip-path="url(#clip0_1618_15)">
<path d="M18.7506 37.5C17.9284 37.5115 17.1125 37.3548 16.353 37.0394C15.5936 36.724 14.9067 36.2566 14.3346 35.666C13.7439 35.0939 13.2766 34.407 12.9612 33.6475C12.6458 32.8881 12.489 32.0722 12.5006 31.25V6.24999C12.489 5.42776 12.6458 4.61185 12.9612 3.85243C13.2766 3.093 13.7439 2.40611 14.3346 1.83399C14.9067 1.24334 15.5936 0.775948 16.353 0.460553C17.1125 0.145159 17.9284 -0.0115755 18.7506 -1.43098e-05H62.5006C63.3228 -0.0115755 64.1387 0.145159 64.8982 0.460553C65.6576 0.775948 66.3445 1.24334 66.9166 1.83399C67.5072 2.40611 67.9746 3.093 68.29 3.85243C68.6054 4.61185 68.7622 5.42776 68.7506 6.24999V31.25C68.7472 32.9065 68.0876 34.4942 66.9162 35.6656C65.7449 36.837 64.1571 37.4966 62.5006 37.5H18.7506Z" fill="#5BB683"/>
<path d="M25 31.25H56.25C56.2534 29.5935 56.913 28.0057 58.0844 26.8344C59.2557 25.663 60.8435 25.0034 62.5 25V12.5C61.6778 12.5116 60.8619 12.3548 60.1024 12.0394C59.343 11.724 58.6561 11.2566 58.084 10.666C57.4934 10.0939 57.026 9.40698 56.7106 8.64756C56.3952 7.88814 56.2384 7.07223 56.25 6.25H25C25.0116 7.07223 24.8548 7.88814 24.5394 8.64756C24.224 9.40698 23.7566 10.0939 23.166 10.666C22.5939 11.2566 21.907 11.724 21.1476 12.0394C20.3881 12.3548 19.5722 12.5116 18.75 12.5V25C19.5722 24.9884 20.3881 25.1452 21.1476 25.4606C21.907 25.776 22.5939 26.2434 23.166 26.834C23.7566 27.4061 24.224 28.093 24.5394 28.8524C24.8548 29.6119 25.0116 30.4278 25 31.25Z" fill="#A5DEBE"/>
<path d="M40.6245 28.125C39.3895 28.1468 38.1631 27.9155 37.021 27.4453C35.8788 26.9751 34.8451 26.276 33.9835 25.391C33.0985 24.5293 32.3993 23.4956 31.9291 22.3534C31.4589 21.2113 31.2276 19.9849 31.2495 18.75C31.2276 17.515 31.4589 16.2886 31.9291 15.1465C32.3993 14.0043 33.0985 12.9706 33.9835 12.109C34.8451 11.224 35.8788 10.5248 37.021 10.0546C38.1631 9.58438 39.3895 9.35308 40.6245 9.37495C41.8594 9.35308 43.0858 9.58438 44.2279 10.0546C45.3701 10.5248 46.4038 11.224 47.2655 12.109C48.1505 12.9706 48.8496 14.0043 49.3198 15.1465C49.79 16.2886 50.0213 17.515 49.9995 18.75C50.0213 19.9849 49.79 21.2113 49.3198 22.3534C48.8496 23.4956 48.1505 24.5293 47.2655 25.391C46.4038 26.276 45.3701 26.9751 44.2279 27.4453C43.0858 27.9155 41.8594 28.1468 40.6245 28.125Z" fill="#5BB683"/>
<path d="M56.2509 50H6.25093C5.4287 50.0115 4.61279 49.8548 3.85337 49.5394C3.09395 49.224 2.40706 48.7566 1.83493 48.166C1.24428 47.5938 0.776893 46.9069 0.461499 46.1475C0.146105 45.3881 -0.0106298 44.5722 0.00093135 43.75V12.5C-0.0093275 12.0872 0.065258 11.6768 0.220068 11.2941C0.374879 10.9113 0.606617 10.5645 0.900931 10.275C1.19046 9.98064 1.53732 9.7489 1.92005 9.59409C2.30277 9.43928 2.71321 9.3647 3.12593 9.37495C3.53865 9.3647 3.94909 9.43928 4.33181 9.59409C4.71454 9.7489 5.06141 9.98064 5.35093 10.275C5.64525 10.5645 5.87698 10.9113 6.03179 11.2941C6.1866 11.6768 6.26119 12.0872 6.25093 12.5V43.75H56.2509C57.0797 43.75 57.8746 44.0792 58.4606 44.6652C59.0467 45.2513 59.3759 46.0462 59.3759 46.875C59.3759 47.7038 59.0467 48.4986 58.4606 49.0847C57.8746 49.6707 57.0797 50 56.2509 50Z" fill="#00A2BC"/>
</g>
<defs>
<clipPath id="clip0_1618_15">
<rect width="68.75" height="50" fill="white"/>
</clipPath>
</defs>
</svg>
