<svg width="27" height="20" viewBox="0 0 27 20" fill="none" xmlns="http://www.w3.org/2000/svg">
<mask id="mask0_1314_10466" style="mask-type:luminance" maskUnits="userSpaceOnUse" x="0" y="0" width="27" height="20">
<path d="M26.2478 0H0V19.181H26.2478V0Z" fill="white"/>
</mask>
<g mask="url(#mask0_1314_10466)">
<path d="M0.0005983 17.9823V14.3858C-0.0066394 14.0681 0.0518573 13.7523 0.172385 13.4584C0.292913 13.1646 0.472846 12.8991 0.700793 12.6787C0.921183 12.4556 1.18408 12.2795 1.47376 12.1609C1.76345 12.0422 2.07397 11.9835 2.38676 11.9882H6.29395C6.69122 11.9879 7.08178 12.0911 7.42748 12.2878C7.77828 12.4811 8.07562 12.7591 8.2926 13.0969C8.85395 13.8633 9.58395 14.489 10.4256 14.9252C11.2586 15.3621 12.1849 15.5885 13.1245 15.5846C14.0742 15.5908 15.0111 15.3644 15.8542 14.9252C16.69 14.4929 17.4108 13.866 17.9564 13.0969C18.2027 12.7686 18.5122 12.4935 18.8665 12.2878C19.1964 12.0925 19.5721 11.9891 19.955 11.9882H23.8622C24.1772 11.9824 24.49 12.0404 24.7822 12.1588C25.0743 12.2773 25.3397 12.4536 25.5624 12.6775C25.7851 12.9013 25.9607 13.1679 26.0785 13.4614C26.1964 13.755 26.2542 14.0694 26.2484 14.3858V17.9823C26.251 18.1404 26.2219 18.2975 26.1629 18.4441C26.1039 18.5908 26.0161 18.724 25.9048 18.8359C25.7935 18.9477 25.6609 19.0359 25.515 19.0952C25.369 19.1545 25.2127 19.1837 25.0553 19.1811H19.0899C18.9325 19.1837 18.7762 19.1545 18.6302 19.0952C18.4843 19.0359 18.3517 18.9477 18.2404 18.8359C18.1291 18.724 18.0413 18.5908 17.9823 18.4441C17.9232 18.2975 17.8942 18.1404 17.8968 17.9823V16.4539C17.2096 16.9492 16.4496 17.3335 15.6443 17.5929C14.8297 17.8542 13.9795 17.9857 13.1245 17.9826C12.2732 17.983 11.4273 17.8466 10.6188 17.5787C9.80929 17.3119 9.04496 16.9226 8.35216 16.4244V17.983C8.35469 18.1411 8.32555 18.2981 8.26648 18.4447C8.20741 18.5912 8.11961 18.7243 8.0083 18.8361C7.897 18.9479 7.76446 19.036 7.61857 19.0953C7.47268 19.1545 7.31642 19.1837 7.15908 19.1811H1.19368C1.03611 19.185 0.879409 19.1564 0.73329 19.097C0.587171 19.0376 0.454742 18.9487 0.344205 18.8358C0.231841 18.7248 0.143366 18.5917 0.0842617 18.4449C0.0251573 18.298 -0.00331838 18.1406 0.0005983 17.9823Z" fill="#F8B0B9"/>
<path d="M13.1261 14.3862C12.3787 14.3878 11.6419 14.2081 10.9785 13.8621C10.3071 13.5166 9.72505 13.0187 9.27842 12.4078C8.95297 11.9197 8.5187 11.5146 8.01013 11.2247C7.50651 10.9354 6.93558 10.7853 6.35547 10.7897C6.79325 10.0501 7.71793 9.46584 9.12952 9.03696C10.4229 8.62554 11.7696 8.40824 13.1261 8.39209C14.4827 8.4082 15.8295 8.6255 17.123 9.03696C18.5343 9.4661 19.459 10.0504 19.897 10.7897C19.3215 10.7891 18.7557 10.939 18.2553 11.2247C17.7407 11.5115 17.3012 11.917 16.9729 12.4078C16.5516 13.0339 15.9767 13.5402 15.3038 13.8779C14.6282 14.217 13.8827 14.3916 13.1276 14.3873" fill="#5E78C1"/>
<path d="M3.58018 10.7895C3.10868 10.7979 2.64048 10.7092 2.20442 10.5288C1.76836 10.3484 1.37369 10.0802 1.04474 9.74072C0.706856 9.41019 0.439929 9.01362 0.26041 8.57547C0.0808913 8.13731 -0.00741468 7.66686 0.000935684 7.1931C-0.0101198 6.71704 0.076897 6.24382 0.256523 5.80316C0.436148 5.3625 0.704503 4.96391 1.04474 4.63243C1.37566 4.29644 1.77098 4.03141 2.20679 3.85338C2.64259 3.67535 3.10981 3.58801 3.58018 3.59665C4.05252 3.58823 4.52171 3.6755 4.95975 3.85326C5.39779 4.03102 5.7957 4.29562 6.12975 4.63127C6.4638 4.96692 6.72713 5.36675 6.90404 5.8069C7.08094 6.24704 7.1678 6.71849 7.15942 7.1931C7.16802 7.66572 7.0811 8.13519 6.90392 8.57309C6.72674 9.01099 6.46297 9.40821 6.1286 9.74072C5.7987 10.0826 5.40202 10.3522 4.96346 10.5327C4.52491 10.7132 4.05396 10.8007 3.58018 10.7895Z" fill="#F8B0B9"/>
<path d="M22.67 10.7897C22.1985 10.7981 21.7303 10.7093 21.2943 10.5289C20.8582 10.3486 20.4635 10.0804 20.1346 9.74085C19.7967 9.41031 19.5298 9.01374 19.3503 8.57559C19.1707 8.13743 19.0824 7.66698 19.0908 7.19322C19.0797 6.71716 19.1667 6.24394 19.3464 5.80328C19.526 5.36262 19.7943 4.96404 20.1346 4.63255C20.4655 4.29657 20.8608 4.03154 21.2966 3.8535C21.7324 3.67547 22.1997 3.58813 22.67 3.59678C23.1424 3.58835 23.6115 3.67563 24.0496 3.85338C24.4876 4.03114 24.8855 4.29574 25.2196 4.63139C25.5536 4.96704 25.817 5.36687 25.9939 5.80702C26.1708 6.24717 26.2576 6.71861 26.2493 7.19322C26.2579 7.66585 26.1709 8.13531 25.9938 8.57321C25.8166 9.01111 25.5528 9.40833 25.2184 9.74085C24.8885 10.083 24.4916 10.3527 24.0528 10.5332C23.6141 10.7137 23.1429 10.801 22.6689 10.7897" fill="#F8B0B9"/>
<path d="M13.1232 7.19298C12.6517 7.20137 12.1835 7.11264 11.7474 6.93226C11.3113 6.75188 10.9167 6.48367 10.5877 6.14417C10.2498 5.81363 9.98292 5.41706 9.8034 4.97891C9.62388 4.54075 9.53557 4.0703 9.54392 3.59654C9.53275 3.12046 9.61972 2.64721 9.79935 2.20654C9.97898 1.76586 10.2474 1.36729 10.5877 1.03587C10.9186 0.699886 11.314 0.434857 11.7498 0.256823C12.1856 0.078789 12.6528 -0.0085484 13.1232 9.61237e-05C13.5955 -0.00832538 14.0647 0.0789459 14.5027 0.256703C14.9408 0.434459 15.3387 0.699058 15.6727 1.03471C16.0068 1.37036 16.2701 1.77019 16.447 2.21034C16.6239 2.65049 16.7108 3.12193 16.7024 3.59654C16.711 4.06917 16.6241 4.53863 16.4469 4.97653C16.2697 5.41443 16.006 5.81165 15.6716 6.14417C15.3416 6.48627 14.9448 6.75606 14.506 6.93656C14.0672 7.11706 13.596 7.20437 13.122 7.19298" fill="#5E78C1"/>
</g>
</svg>
