<svg width="20" height="20" viewBox="0 0 20 20" fill="none" xmlns="http://www.w3.org/2000/svg">
<path d="M9.54485 19.1812C8.26547 19.1898 6.99813 18.9326 5.82244 18.4255C3.53644 17.4559 1.71733 15.628 0.752326 13.331C0.247712 12.1497 -0.00835393 10.8763 0.000207823 9.59073C-0.00835393 8.30519 0.247712 7.03177 0.752326 5.85042C1.71733 3.55344 3.53644 1.72559 5.82244 0.755942C6.99813 0.248903 8.26547 -0.00839408 9.54485 0.000208822C10.8242 -0.00839408 12.0916 0.248903 13.2673 0.755942C15.5533 1.72559 17.3724 3.55344 18.3374 5.85042C18.842 7.03177 19.0981 8.30519 19.0895 9.59073C19.0981 10.8763 18.842 12.1497 18.3374 13.331C17.3724 15.628 15.5533 17.4559 13.2673 18.4255C12.0916 18.9326 10.8242 19.1898 9.54485 19.1812Z" fill="#A4D6DD"/>
<path d="M9.54491 19.1168C9.88748 19.1175 10.2298 19.0976 10.57 19.0573C10.9048 19.0158 11.237 18.9558 11.5653 18.8778L10.1382 16.728H5.97674V15.5338C5.97795 14.9006 6.2288 14.2936 6.67437 13.8459C7.11994 13.3981 7.72394 13.1459 8.35412 13.1446H10.7307V9.5612H8.35641C8.19949 9.56417 8.04358 9.53531 7.89801 9.47635C7.75244 9.4174 7.62019 9.32956 7.50917 9.21808C7.39816 9.1066 7.31065 8.97377 7.25188 8.82754C7.19312 8.68131 7.1643 8.52467 7.16715 8.36699V5.9778H6.63265C6.39097 5.98314 6.15069 5.93965 5.92607 5.84989C5.70144 5.76014 5.49705 5.62596 5.32503 5.45531C5.15078 5.28809 5.01322 5.08614 4.92117 4.86238C4.82913 4.63863 4.78463 4.39802 4.79053 4.15598C4.79157 3.97431 4.81726 3.79362 4.86689 3.61892C4.91648 3.43995 4.99131 3.26905 5.08909 3.11139L6.9312 0.393433C4.96104 0.949461 3.22434 2.13436 1.98326 3.76929C0.692654 5.41887 0.00524983 7.46391 0.0361546 9.56197H1.22389V8.36699C1.22094 8.20931 1.24966 8.05265 1.30833 7.90638C1.367 7.76011 1.45443 7.62723 1.56537 7.51568C1.67632 7.40413 1.80851 7.3162 1.95404 7.25715C2.09957 7.1981 2.25546 7.16915 2.41239 7.17201H4.78977C4.94676 7.16904 5.10273 7.19792 5.24835 7.25692C5.39397 7.31593 5.52626 7.40384 5.63728 7.5154C5.74831 7.62696 5.8358 7.75988 5.89452 7.9062C5.95324 8.05252 5.98198 8.20925 5.97903 8.36699V9.5612C5.98198 9.71894 5.95324 9.87566 5.89452 10.022C5.8358 10.1683 5.74831 10.3012 5.63728 10.4128C5.52626 10.5244 5.39397 10.6123 5.24835 10.6713C5.10273 10.7303 4.94676 10.7591 4.78977 10.7562V11.95C4.79442 12.2644 4.73482 12.5764 4.61464 12.8668C4.49447 13.1571 4.31628 13.4196 4.0911 13.6379C3.87378 13.8642 3.61257 14.0432 3.32363 14.164C3.03468 14.2847 2.72415 14.3446 2.41124 14.34H1.31285C2.13961 15.7685 3.31611 16.961 4.73059 17.8041C6.18328 18.6816 7.85 19.1365 9.54491 19.118" fill="#5BB683"/>
<path d="M18.5795 12.488C18.7391 12.0261 18.8586 11.5512 18.9364 11.0686C19.0163 10.5701 19.0559 10.0659 19.0548 9.56097C19.0843 7.41896 18.3697 5.33363 17.034 3.66395C15.7497 2.00343 13.9506 0.821058 11.9219 0.304199V3.58914C12.2348 3.58467 12.5452 3.64465 12.8341 3.76539C13.1231 3.88614 13.3843 4.06507 13.6017 4.29117C13.8265 4.50975 14.0044 4.77229 14.1244 5.06259C14.2443 5.35289 14.3039 5.6648 14.2993 5.9791V8.36791C14.6408 8.36326 14.9812 8.40849 15.3098 8.50217C15.638 8.6121 15.934 8.80187 16.1715 9.05459L18.5795 12.488Z" fill="#5BB683"/>
</svg>
