<svg width="16" height="20" viewBox="0 0 16 20" fill="none" xmlns="http://www.w3.org/2000/svg">
<path d="M0.000426124 16.8238C0.297074 16.6658 0.778123 15.8134 1.09615 15.7459C1.42047 15.6778 1.75098 15.6438 2.0823 15.6446L2.54541 14.8586V0.000159829H1.90935C1.65507 -0.00324228 1.40297 0.0477037 1.16977 0.149621C0.93657 0.251538 0.727591 0.402097 0.556688 0.591319C0.189534 0.976703 -0.0105127 1.49267 0.000426124 2.02606V16.8238Z" fill="#5BB683"/>
<path d="M15.2727 0.000976562H2.53516V14.8594H15.2727V0.000976562Z" fill="#A5DEBE"/>
<path d="M2.11731 19.182H15.2725C15.1329 18.8497 15.0209 18.5063 14.9377 18.1554C14.8526 17.7833 14.8112 17.4024 14.8144 17.0206C14.8138 16.6457 14.8492 16.2716 14.9201 15.9035C14.9914 15.5414 15.1098 15.1903 15.2725 14.8593H2.11731C1.83456 14.8513 1.5533 14.9033 1.29192 15.012C1.03054 15.1207 0.794929 15.2836 0.60048 15.49C0.404764 15.6926 0.251007 15.9322 0.148116 16.195C0.0452256 16.4577 -0.00475288 16.7384 0.00107657 17.0206C-0.00800171 17.3062 0.0404116 17.5906 0.143412 17.8568C0.246413 18.1231 0.401878 18.3657 0.60048 18.5701C0.797515 18.772 1.03398 18.9307 1.29502 19.0364C1.55606 19.142 1.83603 19.1922 2.11731 19.1839" fill="#ECECEC"/>
<path d="M14.1386 16.0321L3.0783 15.9201C3.03942 15.9196 3.00233 15.9036 2.9752 15.8756C2.94806 15.8476 2.9331 15.81 2.93361 15.7709C2.93411 15.7318 2.95004 15.6946 2.9779 15.6673C3.00575 15.64 3.04324 15.625 3.08212 15.6255L14.1413 15.7375C14.1802 15.7379 14.2173 15.7537 14.2446 15.7816C14.2718 15.8095 14.2869 15.8471 14.2866 15.8862C14.2862 15.9252 14.2704 15.9626 14.2427 15.9899C14.2149 16.0173 14.1775 16.0325 14.1386 16.0321Z" fill="#C0C0C0"/>
<path d="M12.7485 16.6305L2.69606 16.5292C2.65717 16.5289 2.62003 16.513 2.59278 16.4852C2.56554 16.4573 2.55043 16.4197 2.55079 16.3806C2.55114 16.3415 2.56693 16.3042 2.59467 16.2768C2.62242 16.2494 2.65985 16.2343 2.69873 16.2346L12.7511 16.3359C12.79 16.3363 12.8272 16.3521 12.8544 16.38C12.8817 16.4079 12.8968 16.4455 12.8964 16.4846C12.8961 16.5236 12.8803 16.561 12.8525 16.5883C12.8248 16.6157 12.7874 16.6309 12.7485 16.6305Z" fill="#C0C0C0"/>
<path d="M10.8883 17.219L2.27028 17.1315C2.25102 17.1314 2.23199 17.1274 2.21427 17.1198C2.19655 17.1122 2.18049 17.1012 2.167 17.0874C2.13976 17.0596 2.12465 17.022 2.12501 16.9829C2.12536 16.9438 2.14115 16.9065 2.16889 16.8791C2.19664 16.8517 2.23407 16.8366 2.27295 16.8369L10.891 16.9248C10.9299 16.9251 10.967 16.941 10.9943 16.9689C11.0215 16.9967 11.0366 17.0344 11.0363 17.0734C11.0359 17.1125 11.0201 17.1498 10.9924 17.1772C10.9646 17.2046 10.9272 17.2197 10.8883 17.2194" fill="#C0C0C0"/>
<path d="M12.97 18.1202L2.91756 18.0205C2.89875 18.0205 2.88014 18.0244 2.86284 18.0318C2.84553 18.0392 2.82988 18.05 2.81681 18.0636C2.80374 18.0772 2.79352 18.0933 2.78676 18.1109C2.78 18.1286 2.77683 18.1474 2.77745 18.1663C2.77673 18.1851 2.77972 18.2039 2.78625 18.2216C2.79278 18.2392 2.80271 18.2554 2.81548 18.2692C2.82825 18.283 2.84361 18.2941 2.86067 18.3019C2.87772 18.3097 2.89615 18.3141 2.91489 18.3147L12.9673 18.416C13.0062 18.4164 13.0436 18.4012 13.0714 18.3738C13.0991 18.3464 13.1149 18.3091 13.1152 18.2701C13.1156 18.231 13.1005 18.1934 13.0733 18.1655C13.046 18.1376 13.0089 18.1218 12.97 18.1214" fill="#C0C0C0"/>
<path d="M11.1148 17.4946L2.4968 17.4067C2.45902 17.4083 2.42329 17.4244 2.39698 17.4517C2.37068 17.479 2.35582 17.5154 2.35547 17.5533C2.35513 17.5913 2.36933 17.628 2.39514 17.6558C2.42094 17.6835 2.45638 17.7003 2.49412 17.7025L11.1122 17.7888C11.1314 17.789 11.1505 17.7854 11.1684 17.7781C11.1862 17.7709 11.2025 17.7602 11.2162 17.7466C11.23 17.7331 11.2409 17.7169 11.2484 17.6991C11.256 17.6813 11.2599 17.6622 11.2601 17.6429C11.2603 17.6235 11.2567 17.6043 11.2495 17.5864C11.2423 17.5684 11.2316 17.5521 11.2181 17.5383C11.2046 17.5245 11.1886 17.5135 11.1708 17.5059C11.1531 17.4984 11.1341 17.4948 11.1148 17.4946Z" fill="#C0C0C0"/>
</svg>
