<svg width="20" height="20" viewBox="0 0 20 20" fill="none" xmlns="http://www.w3.org/2000/svg">
<path d="M2.15265 19.1813C1.74696 19.203 1.34452 19.0982 1.00042 18.8812C0.656309 18.6642 0.387353 18.3456 0.230363 17.9691C0.0404219 17.6108 -0.0348133 17.2023 0.0149318 16.7994C0.0646769 16.3965 0.236977 16.0188 0.508303 15.718L6.39429 8.52552V2.13171H5.33407C5.19407 2.13432 5.05497 2.10852 4.92512 2.05585C4.79527 2.00319 4.67732 1.92475 4.57834 1.82522C4.47936 1.72569 4.40137 1.60712 4.34906 1.4766C4.29674 1.34609 4.27116 1.20631 4.27386 1.06563C4.27127 0.925015 4.29692 0.785318 4.34928 0.654892C4.40165 0.524466 4.47965 0.405988 4.57862 0.306541C4.67759 0.207095 4.7955 0.128721 4.9253 0.076105C5.0551 0.0234894 5.19413 -0.00228753 5.33407 0.000315198H13.8185C13.9586 -0.00316939 14.0979 0.0222699 14.2278 0.0750585C14.3577 0.127847 14.4754 0.206862 14.5737 0.307212C14.6735 0.405964 14.7522 0.524261 14.8047 0.65478C14.8572 0.7853 14.8826 0.925266 14.8791 1.06601C14.8816 1.20665 14.8559 1.34636 14.8036 1.4768C14.7512 1.60724 14.6732 1.72575 14.5743 1.82524C14.4753 1.92474 14.3574 2.00319 14.2276 2.05591C14.0979 2.10863 13.9588 2.13454 13.8189 2.1321H12.7575V8.52552L18.6435 15.7176C18.8986 16.0286 19.06 16.4062 19.1089 16.8061C19.1578 17.2061 19.0921 17.6117 18.9195 17.9754C18.7469 18.3391 18.4746 18.6458 18.1346 18.8594C17.7945 19.073 17.4009 19.1847 16.9999 19.1813H2.15265Z" fill="#C8EDF2"/>
<path d="M2.15234 17.0504H17L10.6368 9.27283V2.13135H8.51518V9.27283L2.15234 17.0504Z" fill="#C8EDF2"/>
<path d="M2.8945 17.8554H16.257C16.3952 17.8561 16.5307 17.8169 16.6474 17.7425C16.7641 17.6681 16.8571 17.5616 16.9154 17.4356C16.9737 17.3097 16.9948 17.1696 16.9762 17.032C16.9576 16.8944 16.9001 16.765 16.8106 16.6593L12.4342 11.5118C12.3658 11.4316 12.2808 11.3672 12.1853 11.3231C12.0897 11.279 11.9858 11.2562 11.8806 11.2563H7.27091C7.16574 11.2562 7.06179 11.279 6.96623 11.3231C6.87066 11.3672 6.78574 11.4316 6.71732 11.5118L2.34015 16.6593C2.25059 16.765 2.1931 16.8944 2.17453 17.032C2.15595 17.1696 2.17705 17.3097 2.23533 17.4356C2.29361 17.5616 2.38662 17.6681 2.50333 17.7425C2.62003 17.8169 2.75553 17.8561 2.89374 17.8554" fill="#5BB683"/>
<path d="M12.7561 3.94918H9.59147C9.52059 3.94918 9.45261 3.92089 9.40249 3.87053C9.35238 3.82017 9.32422 3.75186 9.32422 3.68064C9.32422 3.60942 9.35238 3.54112 9.40249 3.49076C9.45261 3.4404 9.52059 3.41211 9.59147 3.41211H12.7561V3.94918Z" fill="#5BB683"/>
<path d="M12.7561 4.9565H9.59147C9.52059 4.9565 9.45261 4.92821 9.40249 4.87785C9.35238 4.82749 9.32422 4.75919 9.32422 4.68797C9.32422 4.61675 9.35238 4.54845 9.40249 4.49809C9.45261 4.44773 9.52059 4.41943 9.59147 4.41943H12.7561V4.9565Z" fill="#5BB683"/>
</svg>
