<svg width="20" height="20" viewBox="0 0 20 20" fill="none" xmlns="http://www.w3.org/2000/svg">
<mask id="mask0_1314_10459" style="mask-type:luminance" maskUnits="userSpaceOnUse" x="0" y="0" width="20" height="20">
<path d="M19.0893 0H0V19.181H19.0893V0Z" fill="white"/>
</mask>
<g mask="url(#mask0_1314_10459)">
<path d="M4.01719 19.1811C3.88575 19.1848 3.75489 19.1623 3.63215 19.1149C3.50942 19.0675 3.39724 18.9961 3.3021 18.9049C3.20853 18.8182 3.13436 18.7124 3.08454 18.5947C3.03471 18.477 3.01036 18.35 3.01309 18.2221V15.0572C2.0791 14.2523 1.32267 13.2603 0.792245 12.1447C0.267841 11.0487 -0.00273937 9.84763 0.000803212 8.63154C-0.0153092 7.48319 0.211156 6.34447 0.665251 5.29053C1.11935 4.2366 1.79074 3.29142 2.63512 2.5174C3.48442 1.69445 4.48729 1.04838 5.58603 0.616354C6.68477 0.184332 7.85769 -0.0251112 9.03729 7.67037e-05C11.0314 -0.0306702 12.982 0.587258 14.598 1.76166C16.1621 2.86314 17.28 4.49289 17.7477 6.3536L19.0519 11.2689C19.0946 11.4105 19.1009 11.5607 19.0702 11.7054C19.0395 11.8501 18.9728 11.9846 18.8763 12.0964C18.7807 12.2168 18.6584 12.313 18.5192 12.3775C18.38 12.4419 18.2277 12.4729 18.0745 12.4677H16.0663V15.3449C16.0688 15.5998 16.0176 15.8524 15.916 16.086C15.8144 16.3196 15.6648 16.5289 15.4769 16.7002C15.2888 16.8833 15.0667 17.0272 14.8232 17.1238C14.5796 17.2203 14.3195 17.2677 14.0578 17.263H12.0496V18.2221C12.0523 18.35 12.028 18.477 11.9781 18.5947C11.9283 18.7124 11.8541 18.8182 11.7606 18.9049C11.6654 18.9961 11.5533 19.0675 11.4305 19.1149C11.3078 19.1623 11.1769 19.1848 11.0455 19.1811" fill="#F8E6C4"/>
<path d="M8.47053 8.32862C8.52704 8.09674 8.63439 7.88048 8.78474 7.69564C8.94569 7.51653 9.13211 7.36231 9.33795 7.23799C9.51346 7.13188 9.68333 7.01664 9.84687 6.89273C9.96587 6.8031 10.0682 6.69311 10.1492 6.5678C10.2241 6.45124 10.2632 6.3152 10.2619 6.17651C10.2632 6.04796 10.2284 5.92164 10.1615 5.81207C10.0947 5.7024 9.99775 5.61447 9.88238 5.55888C9.759 5.49779 9.62236 5.46878 9.48494 5.47448C9.33509 5.46993 9.18654 5.50358 9.05314 5.5723C8.92184 5.63784 8.81151 5.73913 8.73473 5.86462C8.65748 5.99295 8.61582 6.13971 8.61408 6.28967H6.54366C6.53182 5.79618 6.67254 5.31114 6.94644 4.90135C7.20935 4.53025 7.57594 4.24588 7.99979 4.08424C8.47747 3.90109 8.98556 3.81125 9.49677 3.81954C10.036 3.81017 10.5726 3.89586 11.0823 4.07273C11.5067 4.21556 11.8813 4.47787 12.1616 4.82846C12.4261 5.17997 12.5631 5.61175 12.5499 6.05221C12.5638 6.4654 12.4416 6.87165 12.2025 7.20806C11.9311 7.55451 11.5878 7.83729 11.1965 8.03668C11.0135 8.14005 10.8412 8.26149 10.6822 8.39921C10.5536 8.51286 10.4504 8.65246 10.3791 8.80891C10.3046 8.98394 10.2683 9.17295 10.2726 9.36324V9.54316H8.36096V9.36401C8.35182 9.01604 8.38866 8.66839 8.47053 8.33015M8.78474 12.0467C8.61245 11.9549 8.46811 11.818 8.36707 11.6504C8.26596 11.4851 8.21501 11.2938 8.22046 11.0999C8.21452 10.9101 8.26561 10.723 8.36707 10.5628C8.47012 10.399 8.61413 10.2651 8.78474 10.1746C8.96202 10.0794 9.16022 10.0303 9.36124 10.0319C9.55544 10.0322 9.74649 10.0812 9.91708 10.1745C10.0877 10.2677 10.2324 10.4023 10.3382 10.5659C10.442 10.7245 10.4991 10.9093 10.5028 11.0991C10.4996 11.2944 10.4426 11.4849 10.3382 11.6496C10.2337 11.8149 10.0894 11.9509 9.91859 12.0451C9.7478 12.1394 9.55608 12.1887 9.36124 12.1886C9.16017 12.1907 8.96185 12.1416 8.78474 12.0459" fill="#5E78C1"/>
</g>
</svg>
