<svg width="36" height="36" viewBox="0 0 36 36" fill="none" xmlns="http://www.w3.org/2000/svg">
<path d="M17.8087 35.1818C15.437 35.197 13.0881 34.7227 10.9123 33.7893C6.6386 31.9902 3.23395 28.6274 1.41025 24.404C0.465343 22.2551 -0.0148874 19.9348 0.000351639 17.5917C-0.00201537 15.267 0.472074 12.9659 1.39401 10.8272C2.31595 8.68863 3.66661 6.75684 5.3645 5.14848C7.03065 3.55029 8.98635 2.27662 11.1293 1.39405C13.3518 0.471586 15.7385 -0.00185319 18.1489 0.00161817C20.4448 -0.0292592 22.7249 0.382024 24.8618 1.21252C26.8993 1.98443 28.7797 3.11245 30.4131 4.54267C32.0006 5.96101 33.2834 7.68046 34.1852 9.59877C35.1168 11.5698 35.5952 13.7204 35.5858 15.896C35.5858 19.2564 34.5439 21.8605 32.4593 23.6462C30.3627 25.4442 27.6635 26.4051 24.8888 26.341H21.6093C21.3331 26.341 21.1495 26.4015 21.0577 26.5521C20.9615 26.696 20.9085 26.8638 20.9047 27.0362C20.9828 27.5927 21.2162 28.1168 21.5787 28.5496C22.0344 29.2198 22.2698 30.0127 22.2526 30.8201C22.3038 31.4158 22.2204 32.0152 22.0083 32.575C21.7962 33.1348 21.4608 33.6409 21.0264 34.0567C20.1197 34.7853 18.9755 35.162 17.808 35.1163L17.8087 35.1818Z" fill="#E9B77F"/>
<path d="M11.3497 12.2158C11.7727 12.232 12.1945 12.1616 12.5887 12.009C12.9829 11.8563 13.3409 11.6248 13.6402 11.3289C13.9396 11.0329 14.1738 10.679 14.3282 10.2893C14.4826 9.89961 14.5538 9.48257 14.5374 9.06437C14.5529 8.64669 14.481 8.23034 14.3262 7.84141C14.1714 7.45247 13.937 7.09932 13.6378 6.80407C13.3385 6.50883 12.9809 6.27784 12.5871 6.12559C12.1934 5.97334 11.7721 5.9031 11.3497 5.91926C10.9277 5.90399 10.5071 5.97489 10.1142 6.12755C9.7212 6.2802 9.36429 6.51132 9.06574 6.80647C8.76719 7.10162 8.53341 7.45446 8.379 7.84295C8.22459 8.23145 8.15286 8.64724 8.16831 9.06437C8.15196 9.48202 8.22301 9.89851 8.37702 10.2878C8.53102 10.677 8.76467 11.0306 9.06332 11.3265C9.36196 11.6223 9.71918 11.854 10.1126 12.007C10.506 12.1601 10.9272 12.2311 11.3497 12.2158Z" fill="#DB0A0A"/>
<path d="M6.13362 20.7405C6.55615 20.7563 6.97744 20.6857 7.37108 20.533C7.76472 20.3804 8.12224 20.149 8.42123 19.8534C8.72022 19.5578 8.95425 19.2044 9.10865 18.8152C9.26305 18.4261 9.3345 18.0096 9.31852 17.5919C9.3344 17.1742 9.26287 16.7578 9.10843 16.3687C8.95398 15.9796 8.71994 15.6263 8.42096 15.3308C8.12198 15.0353 7.7645 14.804 7.37091 14.6514C6.97732 14.4988 6.55609 14.4281 6.13362 14.4439C5.7112 14.4282 5.29006 14.4989 4.89655 14.6516C4.50305 14.8042 4.14565 15.0355 3.84675 15.331C3.54784 15.6265 3.31387 15.9799 3.15946 16.3689C3.00506 16.7579 2.93356 17.1743 2.94943 17.5919C2.93356 18.0095 3.00506 18.4258 3.15946 18.8148C3.31387 19.2039 3.54784 19.5572 3.84675 19.8527C4.14565 20.1482 4.50305 20.3795 4.89655 20.5321C5.29006 20.6848 5.7112 20.7555 6.13362 20.7398V20.7405Z" fill="#009BFF"/>
<path d="M26.9915 15.3312C26.6927 15.6268 26.4589 15.9801 26.3045 16.3691C26.1501 16.758 26.0784 17.1743 26.094 17.5918C26.078 18.0093 26.1494 18.4254 26.3036 18.8143C26.4578 19.2033 26.6915 19.5565 26.9901 19.8521C27.2887 20.1476 27.6458 20.379 28.039 20.5319C28.4322 20.6848 28.8531 20.7558 29.2753 20.7405C29.6977 20.7562 30.1189 20.6855 30.5124 20.5328C30.9059 20.3802 31.2633 20.1489 31.5622 19.8534C31.8611 19.5579 32.0951 19.2045 32.2495 18.8155C32.4039 18.4265 32.4754 18.0101 32.4595 17.5925C32.4755 17.1749 32.4041 16.7585 32.2497 16.3693C32.0953 15.9802 31.8614 15.6268 31.5625 15.3313C31.2636 15.0357 30.9061 14.8043 30.5126 14.6516C30.119 14.4989 29.6978 14.4282 29.2753 14.4439C28.8534 14.4289 28.4329 14.4999 28.04 14.6526C27.6471 14.8052 27.2901 15.0362 26.9915 15.3312Z" fill="#FFF700"/>
<path d="M21.3235 5.78257C21.0248 6.07819 20.7909 6.43151 20.6365 6.82047C20.4821 7.20944 20.4104 7.62569 20.426 8.04325C20.4101 8.46086 20.4816 8.8772 20.636 9.26623C20.7904 9.65525 21.0244 10.0086 21.3233 10.3041C21.6222 10.5996 21.9796 10.8309 22.3731 10.9835C22.7666 11.1362 23.1878 11.2069 23.6102 11.1912C24.0326 11.2069 24.4537 11.1362 24.8472 10.9835C25.2408 10.8309 25.5981 10.5996 25.8971 10.3041C26.196 10.0086 26.4299 9.65525 26.5843 9.26623C26.7387 8.8772 26.8102 8.46086 26.7944 8.04325C26.8102 7.62565 26.7387 7.2093 26.5843 6.82027C26.4299 6.43125 26.196 6.07793 25.8971 5.78243C25.5981 5.48693 25.2408 5.25561 24.8472 5.10297C24.4537 4.95032 24.0326 4.87964 23.6102 4.89533C23.1878 4.87993 22.7668 4.95077 22.3733 5.10342C21.9799 5.25608 21.6225 5.48727 21.3235 5.78257Z" fill="#BB37BA"/>
</svg>
