<svg width="54" height="51" viewBox="0 0 54 51" fill="none" xmlns="http://www.w3.org/2000/svg">
<g clip-path="url(#clip0_1618_2)">
<path d="M21.2375 10.619H31.8565V5.30902H21.2375V10.619ZM5.3095 50.438C4.61107 50.4478 3.91803 50.3146 3.27296 50.0467C2.6279 49.7788 2.04446 49.3818 1.5585 48.88C1.05681 48.394 0.659805 47.8106 0.391878 47.1655C0.123951 46.5205 -0.00923732 45.8274 0.000497632 45.129V15.929C-0.00923732 15.2306 0.123951 14.5376 0.391878 13.8925C0.659805 13.2475 1.05681 12.664 1.5585 12.178C2.04449 11.6763 2.62794 11.2793 3.273 11.0114C3.91805 10.7435 4.61108 10.6103 5.3095 10.62H15.9285V5.30902C15.9188 4.6106 16.052 3.91757 16.3199 3.27252C16.5878 2.62746 16.9848 2.04401 17.4865 1.55802C17.9725 1.05633 18.5559 0.659323 19.201 0.391396C19.8461 0.123469 20.5391 -0.00971967 21.2375 1.52907e-05H31.8565C32.5549 -0.00977867 33.248 0.123383 33.893 0.391313C34.5381 0.659244 35.1215 1.05628 35.6075 1.55802C36.1092 2.04401 36.5062 2.62746 36.7741 3.27252C37.042 3.91757 37.1752 4.6106 37.1655 5.30902V10.618H47.7845C49.1916 10.6209 50.5403 11.1812 51.5353 12.1762C52.5303 13.1712 53.0906 14.5199 53.0935 15.927V45.127C53.0906 46.5342 52.5303 47.8828 51.5353 48.8778C50.5403 49.8728 49.1916 50.4331 47.7845 50.436L5.3095 50.438Z" fill="#868686"/>
<path d="M37.1655 10.6181H47.7845C48.4829 10.6083 49.1759 10.7415 49.821 11.0094C50.466 11.2774 51.0495 11.6744 51.5355 12.1761C52.0372 12.662 52.4343 13.2455 52.7022 13.8905C52.9701 14.5356 53.1033 15.2286 53.0935 15.9271V45.127C53.0906 46.5342 52.5303 47.8829 51.5353 48.8779C50.5403 49.8729 49.1916 50.4331 47.7845 50.4361H5.3095C4.61108 50.4458 3.91805 50.3126 3.273 50.0447C2.62794 49.7767 2.04449 49.3797 1.5585 48.878C1.05706 48.3923 0.660196 47.8092 0.392277 47.1645C0.124358 46.5198 -0.00896363 45.8271 0.000497632 45.1291V15.9271C-0.00923732 15.2286 0.123951 14.5356 0.391878 13.8906C0.659805 13.2455 1.05681 12.662 1.5585 12.1761C2.04449 11.6744 2.62794 11.2774 3.273 11.0094C3.91805 10.7415 4.61108 10.6083 5.3095 10.6181H15.9285" fill="#6B6B6B"/>
</g>
<defs>
<clipPath id="clip0_1618_2">
<rect width="53.093" height="50.438" fill="white"/>
</clipPath>
</defs>
</svg>
