<svg width="65" height="63" viewBox="0 0 65 63" fill="none" xmlns="http://www.w3.org/2000/svg">
<path d="M31.3171 20C31.3171 17.2386 33.5557 15 36.3171 15H41.6829C44.4443 15 46.6829 17.2386 46.6829 20V52C46.6829 54.7614 44.4443 57 41.6829 57H36.3171C33.5557 57 31.3171 54.7614 31.3171 52V20Z" fill="#A5DEBE"/>
<path d="M23 43.6829C20.2386 43.6829 18 41.4443 18 38.6829L18 33.3171C18 30.5557 20.2386 28.3171 23 28.3171L55 28.3171C57.7614 28.3171 60 30.5556 60 33.3171V38.6829C60 41.4443 57.7614 43.6829 55 43.6829L23 43.6829Z" fill="#A5DEBE"/>
<path d="M52.7073 3.29268C52.7073 1.47418 54.1815 0 56 0V0C57.8185 0 59.2927 1.47418 59.2927 3.29268V14.7073C59.2927 16.5258 57.8185 18 56 18V18C54.1815 18 52.7073 16.5258 52.7073 14.7073V3.29268Z" fill="#A5DEBE"/>
<path d="M50.2927 12.2927C48.4742 12.2927 47 10.8185 47 9V9C47 7.1815 48.4742 5.70732 50.2927 5.70732L61.7073 5.70732C63.5258 5.70732 65 7.1815 65 9V9C65 10.8185 63.5258 12.2927 61.7073 12.2927L50.2927 12.2927Z" fill="#A5DEBE"/>
<path d="M5.70732 48.2927C5.70732 46.4742 7.1815 45 9 45V45C10.8185 45 12.2927 46.4742 12.2927 48.2927V59.7073C12.2927 61.5258 10.8185 63 9 63V63C7.1815 63 5.70732 61.5258 5.70732 59.7073V48.2927Z" fill="#A5DEBE"/>
<path d="M3.29268 57.2927C1.47418 57.2927 2.23416e-07 55.8185 1.43927e-07 54V54C6.44385e-08 52.1815 1.47418 50.7073 3.29268 50.7073L14.7073 50.7073C16.5258 50.7073 18 52.1815 18 54V54C18 55.8185 16.5258 57.2927 14.7073 57.2927L3.29268 57.2927Z" fill="#A5DEBE"/>
</svg>
