<svg width="42" height="42" viewBox="0 0 42 42" fill="none" xmlns="http://www.w3.org/2000/svg">
<path d="M13.3171 5C13.3171 2.23858 15.5557 0 18.3171 0H23.6829C26.4443 0 28.6829 2.23858 28.6829 5V37C28.6829 39.7614 26.4443 42 23.6829 42H18.3171C15.5557 42 13.3171 39.7614 13.3171 37V5Z" fill="#A5DEBE"/>
<path d="M5 28.6829C2.23858 28.6829 5.7381e-07 26.4443 4.53105e-07 23.6829L2.18557e-07 18.3171C9.78512e-08 15.5557 2.23858 13.3171 5 13.3171L37 13.3171C39.7614 13.3171 42 15.5556 42 18.3171V23.6829C42 26.4443 39.7614 28.6829 37 28.6829L5 28.6829Z" fill="#A5DEBE"/>
</svg>
