<svg width="71" height="41" viewBox="0 0 71 41" fill="none" xmlns="http://www.w3.org/2000/svg">
<path d="M25.704 21.694C25.704 22.478 25.48 23.066 25.032 23.458C24.584 23.85 24.066 24.046 23.478 24.046C22.89 24.046 22.358 23.85 21.882 23.458C21.406 23.066 21.168 22.478 21.168 21.694V4.18C21.168 3.396 21.406 2.808 21.882 2.416C22.358 2.024 22.89 1.828 23.478 1.828C24.066 1.828 24.584 2.024 25.032 2.416C25.48 2.808 25.704 3.396 25.704 4.18V10.564H29.232V4.012C29.232 3.228 29.47 2.64 29.946 2.248C30.45 1.856 30.996 1.66 31.584 1.66C32.172 1.66 32.704 1.856 33.18 2.248C33.656 2.64 33.894 3.228 33.894 4.012V21.946C33.894 22.73 33.656 23.318 33.18 23.71C32.704 24.102 32.172 24.298 31.584 24.298C30.996 24.298 30.45 24.102 29.946 23.71C29.47 23.318 29.232 22.73 29.232 21.946V14.596H25.704V21.694ZM3.696 9.43C3.024 9.43 2.52 9.234 2.184 8.842C1.848 8.422 1.68 7.974 1.68 7.498C1.68 6.966 1.848 6.49 2.184 6.07C2.52 5.65 3.024 5.44 3.696 5.44H8.064V2.962C8.064 2.15 8.302 1.548 8.778 1.156C9.282 0.735998 9.842 0.525998 10.458 0.525998C11.046 0.525998 11.592 0.735998 12.096 1.156C12.6 1.548 12.852 2.15 12.852 2.962V5.44H17.094C17.794 5.44 18.312 5.65 18.648 6.07C18.984 6.49 19.152 6.966 19.152 7.498C19.152 7.974 18.984 8.422 18.648 8.842C18.312 9.234 17.794 9.43 17.094 9.43H12.852C12.852 10.242 12.922 11.054 13.062 11.866C13.23 12.678 13.524 13.476 13.944 14.26C14.392 15.016 15.008 15.772 15.792 16.528C16.576 17.284 17.626 18.012 18.942 18.712C19.334 18.936 19.614 19.216 19.782 19.552C19.978 19.86 20.076 20.182 20.076 20.518C20.076 21.078 19.866 21.596 19.446 22.072C19.054 22.548 18.55 22.786 17.934 22.786C17.542 22.786 17.136 22.66 16.716 22.408C14 20.756 11.914 18.824 10.458 16.612C9.73 17.816 8.848 18.922 7.812 19.93C6.776 20.938 5.586 21.876 4.242 22.744C4.018 22.884 3.794 22.982 3.57 23.038C3.374 23.094 3.178 23.122 2.982 23.122C2.366 23.122 1.848 22.884 1.428 22.408C1.036 21.932 0.84 21.414 0.84 20.854C0.84 20.518 0.924 20.196 1.092 19.888C1.288 19.58 1.582 19.314 1.974 19.09C3.234 18.39 4.256 17.648 5.04 16.864C5.824 16.052 6.426 15.24 6.846 14.428C7.294 13.588 7.602 12.748 7.77 11.908C7.938 11.068 8.036 10.242 8.064 9.43H3.696ZM11.172 30.43C10.472 30.43 9.954 30.22 9.618 29.8C9.282 29.38 9.114 28.918 9.114 28.414C9.114 27.91 9.282 27.448 9.618 27.028C9.954 26.608 10.472 26.398 11.172 26.398H27.636C29.428 26.398 30.912 26.944 32.088 28.036C33.292 29.128 33.894 30.682 33.894 32.698V38.368C33.894 39.152 33.642 39.74 33.138 40.132C32.662 40.524 32.13 40.72 31.542 40.72C30.954 40.72 30.408 40.524 29.904 40.132C29.428 39.74 29.19 39.152 29.19 38.368V32.866C29.19 32.054 28.994 31.452 28.602 31.06C28.21 30.64 27.72 30.43 27.132 30.43H11.172ZM43.6751 30.766C42.9751 30.766 42.4571 30.556 42.1211 30.136C41.7851 29.716 41.6171 29.254 41.6171 28.75C41.6171 28.246 41.7851 27.784 42.1211 27.364C42.4571 26.944 42.9751 26.734 43.6751 26.734H51.7811V22.114H39.8531C39.1531 22.114 38.6351 21.918 38.2991 21.526C37.9631 21.134 37.7951 20.672 37.7951 20.14C37.7951 19.58 37.9631 19.104 38.2991 18.712C38.6351 18.32 39.1531 18.124 39.8531 18.124H68.4551C69.1551 18.124 69.6731 18.32 70.0091 18.712C70.3731 19.104 70.5551 19.58 70.5551 20.14C70.5551 20.672 70.3731 21.134 70.0091 21.526C69.6731 21.918 69.1551 22.114 68.4551 22.114H56.5691V26.734H59.7191C61.5111 26.734 62.9951 27.28 64.1711 28.372C65.3751 29.464 65.9771 31.018 65.9771 33.034V38.368C65.9771 39.152 65.7251 39.74 65.2211 40.132C64.7451 40.524 64.2131 40.72 63.6251 40.72C63.0371 40.72 62.4911 40.524 61.9871 40.132C61.5111 39.74 61.2731 39.152 61.2731 38.368V33.202C61.2731 32.39 61.0771 31.788 60.6851 31.396C60.2931 30.976 59.8031 30.766 59.2151 30.766H43.6751ZM61.4411 8.59C61.4411 7.778 61.2451 7.218 60.8531 6.91C60.4611 6.602 59.9711 6.448 59.3831 6.448H43.8851C43.1571 6.448 42.6251 6.238 42.2891 5.818C41.9531 5.398 41.7851 4.908 41.7851 4.348C41.7851 3.872 41.9531 3.424 42.2891 3.004C42.6251 2.584 43.1571 2.374 43.8851 2.374H59.8871C61.6791 2.374 63.1631 2.892 64.3391 3.928C65.5431 4.964 66.1451 6.476 66.1451 8.464C66.1451 9.584 66.0751 10.732 65.9351 11.908C65.7951 13.084 65.5991 14.148 65.3471 15.1C65.1791 15.688 64.8711 16.122 64.4231 16.402C64.0031 16.682 63.5551 16.822 63.0791 16.822C62.4071 16.822 61.8191 16.584 61.3151 16.108C60.8111 15.632 60.6571 14.946 60.8531 14.05C61.0491 13.21 61.1891 12.3 61.2731 11.32C61.3851 10.34 61.4411 9.43 61.4411 8.59Z" fill="white"/>
</svg>
